inDegrees=no
num_controls=7
num_derivatives=13
num_iterations=120
num_multipliers=7
num_parameters=0
num_slacks=7
num_states=26
objective=0.497128
objective_accelerations=0.032058
objective_balance=0.003282
objective_effort=0.034925
objective_height=0.421390
objective_ligament=0.005473
solver_duration=1371.287846
status=Solve_Succeeded
success=true
DataType=double
version=3
OpenSimVersion=4.5
endheader
time	/jointset/ground_pelvis/pelvis_tilt/value	/jointset/ground_pelvis/pelvis_tx/value	/jointset/ground_pelvis/pelvis_ty/value	/jointset/hip_r/hip_flexion_r/value	/jointset/hip_r/hip_adduction_r/value	/jointset/hip_r/hip_rotation_r/value	/jointset/back/lumbar_extension/value	/jointset/patellofemoral_r/patellar_flexion_r/value	/jointset/knee_r/knee_flexion_r/value	/jointset/knee_r/knee_adduction_r/value	/jointset/knee_r/knee_rotation_r/value	/jointset/ankle_r/ankle_angle_r/value	/jointset/subtalar_r/subtalar_angle_r/value	/jointset/ground_pelvis/pelvis_tilt/speed	/jointset/ground_pelvis/pelvis_tx/speed	/jointset/ground_pelvis/pelvis_ty/speed	/jointset/hip_r/hip_flexion_r/speed	/jointset/hip_r/hip_adduction_r/speed	/jointset/hip_r/hip_rotation_r/speed	/jointset/back/lumbar_extension/speed	/jointset/patellofemoral_r/patellar_flexion_r/speed	/jointset/knee_r/knee_flexion_r/speed	/jointset/knee_r/knee_adduction_r/speed	/jointset/knee_r/knee_rotation_r/speed	/jointset/ankle_r/ankle_angle_r/speed	/jointset/subtalar_r/subtalar_angle_r/speed	/forceset/tau_hip_flexion_r	/forceset/tau_hip_adduction_r	/forceset/tau_hip_rotation_r	/forceset/tau_knee_flexion_r	/forceset/tau_ankle_angle_r	/forceset/tau_subtalar_angle_r	/forceset/tau_lumbar_extension	lambda_cid13_p0	lambda_cid14_p0	lambda_cid14_p1	lambda_cid14_p2	lambda_cid14_p3	lambda_cid14_p4	lambda_cid14_p5	/jointset/ground_pelvis/pelvis_tilt/accel	/jointset/ground_pelvis/pelvis_tx/accel	/jointset/ground_pelvis/pelvis_ty/accel	/jointset/hip_r/hip_flexion_r/accel	/jointset/hip_r/hip_adduction_r/accel	/jointset/hip_r/hip_rotation_r/accel	/jointset/back/lumbar_extension/accel	/jointset/patellofemoral_r/patellar_flexion_r/accel	/jointset/knee_r/knee_flexion_r/accel	/jointset/knee_r/knee_adduction_r/accel	/jointset/knee_r/knee_rotation_r/accel	/jointset/ankle_r/ankle_angle_r/accel	/jointset/subtalar_r/subtalar_angle_r/accel	gamma_cid13_p0	gamma_cid14_p0	gamma_cid14_p1	gamma_cid14_p2	gamma_cid14_p3	gamma_cid14_p4	gamma_cid14_p5
0	-0.006514408896987828	0.09625988566386394	0.9427240772981028	0.1762555222360518	-0.2321528494490487	-0.2616339129106469	-0.038598046466844	0.07317863873451518	0.07317863873451017	0.1745325476431809	0.1745264347072302	0.03247278518263602	-0.003452238996797403	0	0	0	0	0	0	0	0	0	0	0	0	0	0.2109501935431415	-0.1469319770301379	-0.04203476602548618	-0.3915259048920761	0.3884992786868205	-0.1514492345810365	-0.109379019557789	-39.0760379340824	74.84816179576771	-42.81845332747461	-3.965328945839675	-32.51420607686195	-679.3660020864729	49.09626987767552	-1.170134383277742	-0.8832216250550138	-0.4808407912232158	7.299857857568039	0.2162207564131108	2.250006796893818	-4.83702116771159	8.423136176551228	8.423136176551569	-2.708365561070485	0.1390644893599131	3.085540319851112	0.9230965155971647	8.708702528363461e-08	5.565723029991229e-08	-5.737343199345364e-07	1.810156636744749e-07	2.04221200135218e-08	4.984405973271227e-08	-2.816358335505641e-07
0.01	-0.006568662646833667	0.09621857285779623	0.942701054107053	0.1766067329061626	-0.2321409331866706	-0.2615135200446593	-0.03884083175263725	0.07358783674854734	0.07358783674854771	0.1743972517645063	0.1745222070152845	0.032626180712289	-0.003405209962567702	-0.01091145098710812	-0.008003058318770958	-0.004593148199007631	0.06976684931862541	0.002323645539604213	0.02394779915278612	-0.04816196154669158	0.08148083904547411	0.08148083904548255	-0.02682425657678266	-0.0008096694521005613	0.03080000744883162	0.00937299033932508	0.2151889125292227	-0.164910743649585	-0.04373031540351217	-0.4047353245577306	0.4084028316346648	-0.1415247980973517	-0.1113808584150909	-39.08963986454718	81.66557835909754	-37.41130409390203	-4.716906961183882	-39.52403755638471	-680.3453512084963	60.75611414358198	-1.06075163014388	-0.7199184162833966	-0.4468183638011596	6.74381027841502	0.2314353885722817	2.447594711749666	-4.746519306564265	7.956725787114242	7.956725787115165	-2.634289621345402	-0.1855492899135146	3.095382222552328	0.9394080380989365	1.149572770512132e-07	5.604682966103885e-08	-7.644600024019727e-07	1.823443919374349e-07	5.100170512555109e-08	-1.009636136513036e-07	-3.504757809576351e-07
0.02	-0.006733851141288558	0.09610501537234215	0.9426324461281008	0.1776413544313446	-0.2321075806817292	-0.2611575635396887	-0.03955338378558022	0.07480107675674552	0.07480107675674889	0.1740007465369912	0.1745109693032842	0.03309120656946114	-0.003265449475945063	-0.02218694892289605	-0.01444893587727206	-0.009116957580484229	0.1366821710134641	0.004287248512734974	0.04711272779670888	-0.09395334943005412	0.1608083988336988	0.1608083988337082	-0.05224186976809326	-0.001402004000930874	0.06232606550378973	0.01854629047859989	0.2194276315152974	-0.1828895102690297	-0.04542586478152178	-0.4179447442233938	0.428306384582506	-0.1316003616136652	-0.1133826972723972	-39.12977143197385	88.55801657571418	-32.01407814159882	-5.440562139682237	-46.70950560149846	-680.1853072305026	72.18852915807896	-1.242943773013839	-0.5717854730009128	-0.4669730277170149	6.729552332810671	0.1442122431183907	2.093432695120826	-4.362906435045854	7.99248032510137	7.992480325100219	-2.427036883975993	0.1825314700142937	3.230750441076546	0.8831584755871158	1.428275288187918e-07	5.64364290221654e-08	-9.551856848694089e-07	1.836731202003949e-07	8.158129023758038e-08	-2.517712870353194e-07	-4.193157283647062e-07
0.03	-0.007012449403133256	0.09593190024262316	0.9425187132681764	0.1793333170172439	-0.2320565056658394	-0.2605763263345872	-0.0407126363312721	0.07679764531903002	0.07679764531903621	0.1733574656747869	0.1744971457286563	0.03387171482083852	-0.003035817544213951	-0.03343859731182028	-0.02020167668507931	-0.01363344138150069	0.2014251536922556	0.005884859816892775	0.06902044698487339	-0.1376053481694947	0.2381540460059707	0.2381540460059597	-0.07620422697392201	-0.001379014681250321	0.09355266684444251	0.02728647713145046	0.2112079128492841	-0.1912308385108504	-0.04289136604944057	-0.4054719090584284	0.4062741656796244	-0.1159503651073217	-0.1071964578522866	-39.19543792987334	82.09090898937141	-26.44801126490026	-6.215568787895137	-42.3514874856404	-679.659366205856	82.02394746903819	-1.052144539527686	-0.5811399373009802	-0.444611066453661	6.303901879366622	0.1609950302672321	2.22235402345568	-4.322574862775091	7.552888092569172	7.552888092566854	-2.349453689898549	-0.09019573608906477	3.0352054019254	0.8552758155535586	1.656741735021086e-07	6.405761780286128e-08	-1.101207562231664e-06	2.199897929721444e-07	9.656370135064863e-08	-3.3296574441021e-07	-4.973733212977784e-07
0.04	-0.007400737982401189	0.0957004333943004	0.9423596905682099	0.1816641555587255	-0.2319907626456676	-0.2597794294390455	-0.04229965451823391	0.07955712658889677	0.07955712658889932	0.1724808375303135	0.174483076367378	0.03495780716989611	-0.00272161833487046	-0.044125012408604	-0.02611927959802748	-0.01817492558889186	0.2644573621291792	0.007220849369160641	0.09024466588468991	-0.1795064776842298	0.3133909403494065	0.3133909403493813	-0.09891132622023809	-0.001451161322924081	0.1234428850397268	0.03545974600108165	0.2029881941832678	-0.1995721667526734	-0.04035686731738843	-0.3929990738934599	0.3842419467767412	-0.1003003686009805	-0.1010102184321774	-39.28544906838464	75.69255175122781	-20.8808886002893	-6.978199178719549	-38.16942909542055	-678.115289355587	91.67397193386394	-1.129897114585868	-0.6047578940289738	-0.4719731089919608	6.387397484437082	0.09188789274038078	1.956732637451018	-4.012732590104826	7.570729759334164	7.570729759334252	-2.175985292073397	0.1635042777436472	2.963473812002974	0.7697749189432482	1.884172386579149e-07	7.182791152004314e-08	-1.246307711653605e-06	2.570278666616008e-07	1.112245212472434e-07	-4.127248777436754e-07	-5.756209687777786e-07
0.05	-0.007893687223698978	0.09540942269130624	0.9421549672388354	0.1846172380588326	-0.2319128308729818	-0.258775301764595	-0.04429662837541974	0.08305925936698992	0.08305925936699399	0.1713832210798172	0.1744693716052629	0.0363369447579833	-0.002328143695042198	-0.05440105407501423	-0.03206254765043639	-0.02278446943153992	0.3258482580178138	0.008324139791297539	0.1104456201482615	-0.2195967539356016	0.3866847744310744	0.3866847744310656	-0.1203904101357161	-0.001299892011686305	0.1522167330491183	0.04315752279499087	0.1965918609901983	-0.1831513176568846	-0.03867842160999286	-0.3854202078293978	0.3751152890247244	-0.1094881262741515	-0.09600203593647669	-39.39831400146431	72.47462635663784	-25.46076499442794	-6.218117820895208	-35.88817154482608	-677.1530977395264	81.12423606089234	-0.9668688731765593	-0.5860418945951953	-0.4577375832391108	5.9683167176899	0.1132134519149502	2.031560919733859	-3.963444170248744	7.156046239618528	7.156046239620965	-2.100802756350101	-0.06048742126315303	2.809192213534429	0.7579625708074363	1.818950683569374e-07	6.424066749110061e-08	-1.194927378537125e-06	2.36572175316026e-07	1.142779116248077e-07	-4.768427038009498e-07	-5.52370670421409e-07
0.06	-0.00848747911775756	0.09505959318103868	0.9419036899587669	0.1881749057331528	-0.2318251334290822	-0.2575732077277248	-0.04668575880063752	0.08728379768730801	0.0872837976873105	0.1700774272271523	0.1744568944004243	0.03799879120979023	-0.001860054585036334	-0.06429354296176264	-0.03788304105270997	-0.02748571572768907	0.3853743969709812	0.009173983612017893	0.1298379383687757	-0.2579377912908053	0.4578720487941599	0.4578720487941677	-0.1405468066537968	-0.001205649863525608	0.1799846577835989	0.05038264003660667	0.1901955277971319	-0.1667304685610962	-0.03699997590260146	-0.3778413417653332	0.3659886312727074	-0.1186758839473229	-0.09099385344077408	-39.53226599696651	69.3194799290133	-30.05664561075935	-5.424647772866576	-33.75606184528893	-675.2268954627494	70.36526013981684	-1.053186558653627	-0.5802029640017964	-0.4903135996921827	6.014446097343649	0.04119857245705295	1.79500542883938	-3.662884810871273	7.14941781561769	7.149417815617805	-1.911447812593903	0.1520988451283819	2.762289157020933	0.6752430084845736	1.741406776156743e-07	5.600679029390022e-08	-1.135274182997975e-06	2.136956938637129e-07	1.168425681278865e-07	-5.403019484992267e-07	-5.248467743456133e-07
0.07000000000000001	-0.009178693967324689	0.09465214686664278	0.9416047887376687	0.1923192761909439	-0.2317302723972588	-0.2561829444506197	-0.04944928875140062	0.09221047504615228	0.09221047504615724	0.1685768694646222	0.1744468422514014	0.03993343713923384	-0.001322081666114906	-0.07388692494006564	-0.04358657709906674	-0.03231679074158599	0.4431965614708359	0.009773954271432432	0.1480835510515968	-0.2944907518316204	0.5271123795246156	0.5271123795246666	-0.1593705355387468	-0.0008329584015241628	0.2067792026574881	0.05715389831199665	0.1835724566632917	-0.1599366158218204	-0.03509283030237807	-0.3706817142150194	0.3547674579279219	-0.1183434915322722	-0.08580893747895879	-39.68544381755834	65.81965854238911	-30.62652423763159	-5.217921133375663	-31.57053214728564	-673.8439329725751	67.67083501937857	-0.9030150487569635	-0.5624588159381502	-0.4829526192892464	5.620644621006072	0.06564004101838551	1.819725045742931	-3.609884621342693	6.758649450086107	6.758649450092512	-1.838854559028437	-0.02429669054087867	2.613272678990944	0.669206593875158	1.577947251446041e-07	4.556242727018924e-08	-1.01385064903061e-06	1.836831346539614e-07	1.132347934361401e-07	-5.794127409354012e-07	-4.730764320261941e-07
0.08	-0.009963962842937903	0.09418825921358653	0.9412568871330216	0.197032776892677	-0.2316301629131746	-0.2546141478751387	-0.05257002489670227	0.09781901746196697	0.09781901746197158	0.1668938705867239	0.1744396868195292	0.04213107562270046	-0.0007181682930778185	-0.08310434817192028	-0.04917130878477865	-0.03728579243749761	0.4992004457586816	0.01022367406423594	0.1655445980439957	-0.3293790301986939	0.5942450601881354	0.5942450601882286	-0.1770350297270113	-0.0006263064305980321	0.2325831685880997	0.06357073085974403	0.1769493855294518	-0.1531427630825463	-0.03318568470215487	-0.3635220866647059	0.343546284583135	-0.1180110991172238	-0.08062402151714269	-39.85573632848213	62.37654106159114	-31.20327742768182	-4.990904959820218	-29.52206737839192	-671.6033748893568	64.80334483278678	-0.9779948093640657	-0.5564420918727155	-0.5178989360951283	5.650790054941841	0.01114839913483111	1.638092290754839	-3.329948376123013	6.727887802230502	6.727887802230446	-1.679600873256768	0.1188909469134279	2.564173368365517	0.6043578629560681	1.408944783683851e-07	3.497545225767114e-08	-8.884419319388445e-07	1.532101833308268e-07	1.092287973769857e-07	-6.16952665483698e-07	-4.197418028523478e-07
0.09	-0.01084003115434373	0.09366922933128727	0.9408584696793754	0.2022978971206338	-0.2315264963899603	-0.2528761147754351	-0.05603095618076324	0.1040891077225556	0.1040891077225588	0.1650404007060831	0.1744353670955001	0.04458208272125806	-5.196894349128303e-05	-0.09205586779260336	-0.05460186989809784	-0.0424257368383513	0.5535160433586844	0.01049081764623358	0.181925775068692	-0.3625350023559481	0.659420903387939	0.659420903387944	-0.1934708824218802	-0.000266646559307712	0.2574679693751443	0.06962098284089532	0.1706730718180182	-0.1524770622390889	-0.03132366400835067	-0.3579443625651017	0.3329962843071377	-0.1121552722549636	-0.07563154397270591	-40.04093409774789	59.32944168234886	-29.33214084975203	-5.130987718981173	-27.94099072109742	-669.940865975654	66.90925186444802	-0.8456899956202025	-0.5314216732113657	-0.5163719713190723	5.275822874877148	0.03159037606978444	1.617737618473221	-3.26758799706885	6.359591391827	6.359591391813797	-1.597484130469228	-0.009793022067514607	2.428119099150811	0.5980145634488638	1.155020828618601e-07	2.53834694701864e-08	-6.865567972186622e-07	1.44426237236417e-07	9.652362984952197e-08	-6.254510130366527e-07	-3.654348524205375e-07
